<svg width="512" height="512" viewBox="0 0 512 512" fill="none" xmlns="http://www.w3.org/2000/svg">
<rect y="6.10352e-05" width="512" height="512" fill="#121212"/>
<path d="M199.328 250.536C200.192 249.128 201.312 248.024 202.688 247.224C204.096 246.424 205.696 246.024 207.488 246.024V253.08H205.712C203.6 253.08 202 253.576 200.912 254.568C199.856 255.56 199.328 257.288 199.328 259.752V273H192.608V246.408H199.328V250.536ZM210.286 259.608C210.286 256.92 210.814 254.536 211.87 252.456C212.958 250.376 214.414 248.776 216.238 247.656C218.094 246.536 220.158 245.976 222.43 245.976C224.414 245.976 226.142 246.376 227.614 247.176C229.118 247.976 230.318 248.984 231.214 250.2V246.408H237.982V273H231.214V269.112C230.35 270.36 229.15 271.4 227.614 272.232C226.11 273.032 224.366 273.432 222.382 273.432C220.142 273.432 218.094 272.856 216.238 271.704C214.414 270.552 212.958 268.936 211.87 266.856C210.814 264.744 210.286 262.328 210.286 259.608ZM231.214 259.704C231.214 258.072 230.894 256.68 230.254 255.528C229.614 254.344 228.75 253.448 227.662 252.84C226.574 252.2 225.406 251.88 224.158 251.88C222.91 251.88 221.758 252.184 220.702 252.792C219.646 253.4 218.782 254.296 218.11 255.48C217.47 256.632 217.15 258.008 217.15 259.608C217.15 261.208 217.47 262.616 218.11 263.832C218.782 265.016 219.646 265.928 220.702 266.568C221.79 267.208 222.942 267.528 224.158 267.528C225.406 267.528 226.574 267.224 227.662 266.616C228.75 265.976 229.614 265.08 230.254 263.928C230.894 262.744 231.214 261.336 231.214 259.704ZM256.738 251.928H252.082V273H245.266V251.928H242.242V246.408H245.266V245.064C245.266 241.8 246.194 239.4 248.05 237.864C249.906 236.328 252.706 235.608 256.45 235.704V241.368C254.818 241.336 253.682 241.608 253.042 242.184C252.402 242.76 252.082 243.8 252.082 245.304V246.408H256.738V251.928ZM259.364 259.608C259.364 256.92 259.892 254.536 260.948 252.456C262.036 250.376 263.492 248.776 265.316 247.656C267.172 246.536 269.236 245.976 271.508 245.976C273.492 245.976 275.22 246.376 276.692 247.176C278.196 247.976 279.396 248.984 280.292 250.2V246.408H287.06V273H280.292V269.112C279.428 270.36 278.228 271.4 276.692 272.232C275.188 273.032 273.444 273.432 271.46 273.432C269.22 273.432 267.172 272.856 265.316 271.704C263.492 270.552 262.036 268.936 260.948 266.856C259.892 264.744 259.364 262.328 259.364 259.608ZM280.292 259.704C280.292 258.072 279.972 256.68 279.332 255.528C278.692 254.344 277.828 253.448 276.74 252.84C275.652 252.2 274.484 251.88 273.236 251.88C271.988 251.88 270.836 252.184 269.78 252.792C268.724 253.4 267.86 254.296 267.188 255.48C266.548 256.632 266.228 258.008 266.228 259.608C266.228 261.208 266.548 262.616 267.188 263.832C267.86 265.016 268.724 265.928 269.78 266.568C270.868 267.208 272.02 267.528 273.236 267.528C274.484 267.528 275.652 267.224 276.74 266.616C277.828 265.976 278.692 265.08 279.332 263.928C279.972 262.744 280.292 261.336 280.292 259.704ZM318.344 259.128C318.344 260.088 318.28 260.952 318.152 261.72H298.712C298.872 263.64 299.544 265.144 300.728 266.232C301.912 267.32 303.368 267.864 305.096 267.864C307.592 267.864 309.368 266.792 310.424 264.648H317.672C316.904 267.208 315.432 269.32 313.256 270.984C311.08 272.616 308.408 273.432 305.24 273.432C302.68 273.432 300.376 272.872 298.328 271.752C296.312 270.6 294.728 268.984 293.576 266.904C292.456 264.824 291.896 262.424 291.896 259.704C291.896 256.952 292.456 254.536 293.576 252.456C294.696 250.376 296.264 248.776 298.28 247.656C300.296 246.536 302.616 245.976 305.24 245.976C307.768 245.976 310.024 246.52 312.008 247.608C314.024 248.696 315.576 250.248 316.664 252.264C317.784 254.248 318.344 256.536 318.344 259.128ZM311.384 257.208C311.352 255.48 310.728 254.104 309.512 253.08C308.296 252.024 306.808 251.496 305.048 251.496C303.384 251.496 301.976 252.008 300.824 253.032C299.704 254.024 299.016 255.416 298.76 257.208H311.384ZM329.969 237.48V273H323.249V237.48H329.969ZM334.88 259.608C334.88 256.92 335.408 254.536 336.464 252.456C337.552 250.376 339.024 248.776 340.88 247.656C342.736 246.536 344.8 245.976 347.072 245.976C348.8 245.976 350.448 246.36 352.016 247.128C353.584 247.864 354.832 248.856 355.76 250.104V237.48H362.576V273H355.76V269.064C354.928 270.376 353.76 271.432 352.256 272.232C350.752 273.032 349.008 273.432 347.024 273.432C344.784 273.432 342.736 272.856 340.88 271.704C339.024 270.552 337.552 268.936 336.464 266.856C335.408 264.744 334.88 262.328 334.88 259.608ZM355.808 259.704C355.808 258.072 355.488 256.68 354.848 255.528C354.208 254.344 353.344 253.448 352.256 252.84C351.168 252.2 350 251.88 348.752 251.88C347.504 251.88 346.352 252.184 345.296 252.792C344.24 253.4 343.376 254.296 342.704 255.48C342.064 256.632 341.744 258.008 341.744 259.608C341.744 261.208 342.064 262.616 342.704 263.832C343.376 265.016 344.24 265.928 345.296 266.568C346.384 267.208 347.536 267.528 348.752 267.528C350 267.528 351.168 267.224 352.256 266.616C353.344 265.976 354.208 265.08 354.848 263.928C355.488 262.744 355.808 261.336 355.808 259.704ZM368.467 247.224C368.627 244.024 369.747 241.56 371.827 239.832C373.939 238.072 376.707 237.192 380.131 237.192C382.467 237.192 384.467 237.608 386.131 238.44C387.795 239.24 389.043 240.344 389.875 241.752C390.739 243.128 391.171 244.696 391.171 246.456C391.171 248.472 390.643 250.184 389.587 251.592C388.563 252.968 387.331 253.896 385.891 254.376V254.568C387.747 255.144 389.187 256.168 390.211 257.64C391.267 259.112 391.795 261 391.795 263.304C391.795 265.224 391.347 266.936 390.451 268.44C389.587 269.944 388.291 271.128 386.563 271.992C384.867 272.824 382.819 273.24 380.419 273.24C376.803 273.24 373.859 272.328 371.587 270.504C369.315 268.68 368.115 265.992 367.987 262.44H374.515C374.579 264.008 375.107 265.272 376.099 266.232C377.123 267.16 378.515 267.624 380.275 267.624C381.907 267.624 383.155 267.176 384.019 266.28C384.915 265.352 385.363 264.168 385.363 262.728C385.363 260.808 384.755 259.432 383.539 258.6C382.323 257.768 380.435 257.352 377.875 257.352H376.483V251.832H377.875C382.419 251.832 384.691 250.312 384.691 247.272C384.691 245.896 384.275 244.824 383.443 244.056C382.643 243.288 381.475 242.904 379.939 242.904C378.435 242.904 377.267 243.32 376.435 244.152C375.635 244.952 375.171 245.976 375.043 247.224H368.467ZM408.962 266.808L415.682 246.408H422.834L412.994 273H404.834L395.042 246.408H402.242L408.962 266.808Z" fill="white"/>
<path d="M135.478 219L169.455 219.872L135.478 245.526V219ZM133.01 220.432V246.864H101.425C112.196 238.246 122.525 229.288 133.01 220.432ZM167.642 224.013L172 225.196L156.265 232.574L167.642 224.013ZM82.4126 226.939H89.3159L105.398 240.824L97.9159 246.864H82.4126C82.4137 240.218 82.4126 233.582 82.4126 226.939ZM79.9444 228.153V233.913H72L79.9444 228.153ZM84.1481 248.857H132.432L118.972 277.904L84.1481 248.857ZM133.01 253.34V294L117.276 287.213C122.522 275.921 127.761 264.635 133.01 253.34Z" fill="#1ED013"/>
</svg>
