<svg width="925" height="250" viewBox="0 0 925 250" fill="none" xmlns="http://www.w3.org/2000/svg">
<rect width="925" height="250" fill="#121212"/>
<path d="M346.922 114.072C348.65 111.256 350.89 109.048 353.642 107.448C356.458 105.848 359.658 105.048 363.242 105.048V119.16H359.69C355.466 119.16 352.266 120.152 350.09 122.136C347.978 124.12 346.922 127.576 346.922 132.504V159H333.482V105.816H346.922V114.072ZM368.839 132.216C368.839 126.84 369.895 122.072 372.007 117.912C374.183 113.752 377.095 110.552 380.743 108.312C384.455 106.072 388.583 104.952 393.127 104.952C397.095 104.952 400.551 105.752 403.495 107.352C406.503 108.952 408.903 110.968 410.695 113.4V105.816H424.231V159H410.695V151.224C408.967 153.72 406.567 155.8 403.495 157.464C400.487 159.064 396.999 159.864 393.031 159.864C388.551 159.864 384.455 158.712 380.743 156.408C377.095 154.104 374.183 150.872 372.007 146.712C369.895 142.488 368.839 137.656 368.839 132.216ZM410.695 132.408C410.695 129.144 410.055 126.36 408.775 124.056C407.495 121.688 405.767 119.896 403.591 118.68C401.415 117.4 399.079 116.76 396.583 116.76C394.087 116.76 391.783 117.368 389.671 118.584C387.559 119.8 385.831 121.592 384.487 123.96C383.207 126.264 382.567 129.016 382.567 132.216C382.567 135.416 383.207 138.232 384.487 140.664C385.831 143.032 387.559 144.856 389.671 146.136C391.847 147.416 394.151 148.056 396.583 148.056C399.079 148.056 401.415 147.448 403.591 146.232C405.767 144.952 407.495 143.16 408.775 140.856C410.055 138.488 410.695 135.672 410.695 132.408ZM461.741 116.856H452.429V159H438.797V116.856H432.749V105.816H438.797V103.128C438.797 96.6 440.653 91.8 444.365 88.728C448.077 85.656 453.677 84.216 461.165 84.408V95.736C457.901 95.672 455.629 96.216 454.349 97.368C453.069 98.52 452.429 100.6 452.429 103.608V105.816H461.741V116.856ZM466.995 132.216C466.995 126.84 468.051 122.072 470.163 117.912C472.339 113.752 475.251 110.552 478.899 108.312C482.611 106.072 486.739 104.952 491.283 104.952C495.251 104.952 498.707 105.752 501.651 107.352C504.659 108.952 507.059 110.968 508.851 113.4V105.816H522.387V159H508.851V151.224C507.123 153.72 504.723 155.8 501.651 157.464C498.643 159.064 495.155 159.864 491.187 159.864C486.707 159.864 482.611 158.712 478.899 156.408C475.251 154.104 472.339 150.872 470.163 146.712C468.051 142.488 466.995 137.656 466.995 132.216ZM508.851 132.408C508.851 129.144 508.211 126.36 506.931 124.056C505.651 121.688 503.923 119.896 501.747 118.68C499.571 117.4 497.235 116.76 494.739 116.76C492.243 116.76 489.939 117.368 487.827 118.584C485.715 119.8 483.987 121.592 482.643 123.96C481.363 126.264 480.723 129.016 480.723 132.216C480.723 135.416 481.363 138.232 482.643 140.664C483.987 143.032 485.715 144.856 487.827 146.136C490.003 147.416 492.307 148.056 494.739 148.056C497.235 148.056 499.571 147.448 501.747 146.232C503.923 144.952 505.651 143.16 506.931 140.856C508.211 138.488 508.851 135.672 508.851 132.408ZM584.954 131.256C584.954 133.176 584.826 134.904 584.569 136.44H545.689C546.009 140.28 547.353 143.288 549.721 145.464C552.089 147.64 555.001 148.728 558.457 148.728C563.449 148.728 567.001 146.584 569.113 142.296H583.61C582.073 147.416 579.129 151.64 574.777 154.968C570.425 158.232 565.081 159.864 558.745 159.864C553.625 159.864 549.017 158.744 544.921 156.504C540.889 154.2 537.721 150.968 535.417 146.808C533.177 142.648 532.057 137.848 532.057 132.408C532.057 126.904 533.177 122.072 535.417 117.912C537.657 113.752 540.793 110.552 544.825 108.312C548.857 106.072 553.497 104.952 558.745 104.952C563.801 104.952 568.313 106.04 572.281 108.216C576.313 110.392 579.417 113.496 581.593 117.528C583.833 121.496 584.954 126.072 584.954 131.256ZM571.033 127.416C570.969 123.96 569.721 121.208 567.289 119.16C564.857 117.048 561.881 115.992 558.361 115.992C555.033 115.992 552.217 117.016 549.913 119.064C547.673 121.048 546.297 123.832 545.785 127.416H571.033ZM608.203 87.96V159H594.763V87.96H608.203ZM618.026 132.216C618.026 126.84 619.082 122.072 621.194 117.912C623.37 113.752 626.314 110.552 630.026 108.312C633.738 106.072 637.866 104.952 642.41 104.952C645.866 104.952 649.162 105.72 652.298 107.256C655.434 108.728 657.93 110.712 659.786 113.208V87.96H673.418V159H659.786V151.128C658.122 153.752 655.786 155.864 652.778 157.464C649.77 159.064 646.282 159.864 642.314 159.864C637.834 159.864 633.738 158.712 630.026 156.408C626.314 154.104 623.37 150.872 621.194 146.712C619.082 142.488 618.026 137.656 618.026 132.216ZM659.882 132.408C659.882 129.144 659.242 126.36 657.962 124.056C656.682 121.688 654.954 119.896 652.778 118.68C650.602 117.4 648.266 116.76 645.77 116.76C643.274 116.76 640.97 117.368 638.858 118.584C636.746 119.8 635.018 121.592 633.674 123.96C632.394 126.264 631.754 129.016 631.754 132.216C631.754 135.416 632.394 138.232 633.674 140.664C635.018 143.032 636.746 144.856 638.858 146.136C641.034 147.416 643.338 148.056 645.77 148.056C648.266 148.056 650.602 147.448 652.778 146.232C654.954 144.952 656.682 143.16 657.962 140.856C659.242 138.488 659.882 135.672 659.882 132.408ZM685.201 107.448C685.521 101.048 687.761 96.12 691.921 92.664C696.145 89.144 701.681 87.384 708.529 87.384C713.201 87.384 717.201 88.216 720.529 89.88C723.857 91.48 726.353 93.688 728.017 96.504C729.745 99.256 730.609 102.392 730.609 105.912C730.609 109.944 729.553 113.368 727.441 116.184C725.393 118.936 722.929 120.792 720.049 121.752V122.136C723.761 123.288 726.641 125.336 728.689 128.28C730.801 131.224 731.857 135 731.857 139.608C731.857 143.448 730.961 146.872 729.169 149.88C727.441 152.888 724.849 155.256 721.393 156.984C718.001 158.648 713.905 159.48 709.105 159.48C701.873 159.48 695.985 157.656 691.441 154.008C686.897 150.36 684.497 144.984 684.241 137.88H697.297C697.425 141.016 698.481 143.544 700.465 145.464C702.513 147.32 705.297 148.248 708.817 148.248C712.081 148.248 714.577 147.352 716.305 145.56C718.097 143.704 718.993 141.336 718.993 138.456C718.993 134.616 717.777 131.864 715.345 130.2C712.913 128.536 709.137 127.704 704.017 127.704H701.233V116.664H704.017C713.105 116.664 717.649 113.624 717.649 107.544C717.649 104.792 716.817 102.648 715.153 101.112C713.553 99.576 711.217 98.808 708.145 98.808C705.137 98.808 702.801 99.64 701.137 101.304C699.537 102.904 698.609 104.952 698.353 107.448H685.201ZM766.189 146.616L779.629 105.816H793.934L774.253 159H757.933L738.349 105.816H752.749L766.189 146.616Z" fill="white"/>
<path d="M224.862 51.868L291.692 53.5828L224.862 104.043V51.868ZM220.007 54.6852V106.677H157.879C179.065 89.7243 199.382 72.1051 220.007 54.6852ZM288.127 61.7275L296.699 64.0546L265.749 78.5679L288.127 61.7275ZM120.482 67.484H134.06L165.693 94.7964L150.976 106.677H120.482C120.484 93.604 120.482 80.55 120.482 67.484ZM115.627 69.8724V81.2015H100L115.627 69.8724ZM123.895 110.596H218.869L192.394 167.732L123.895 110.596ZM220.007 119.414V199.392L189.057 186.042C199.377 163.83 209.682 141.632 220.007 119.414Z" fill="#1ED013"/>
</svg>
