<svg width="661" height="190" viewBox="0 0 661 190" fill="none" xmlns="http://www.w3.org/2000/svg">
<rect width="661" height="190" fill="#070707"/>
<path d="M238.39 93.0513V73.1888V60.5479L222.139 76.8007L238.39 93.0513Z" fill="#33CC22"/>
<path d="M253 71.2197L242.328 60.5479V71.2197H253Z" fill="#33CC22"/>
<path d="M203.631 129.452L215.538 117.546L203.631 107.016V129.452Z" fill="#33CC22"/>
<path d="M218.984 113.932L237.417 97.768L199.874 63.0962H157L218.984 113.932Z" fill="#33CC22"/>
<path d="M276.481 89.68C277.441 88.208 278.641 87.056 280.081 86.224C281.521 85.36 283.121 84.928 284.881 84.928V93.616H282.625C280.577 93.616 279.041 94.064 278.017 94.96C276.993 95.824 276.481 97.36 276.481 99.568V112H268.273V85.216H276.481V89.68ZM287.172 98.56C287.172 95.808 287.684 93.392 288.708 91.312C289.764 89.232 291.188 87.632 292.98 86.512C294.772 85.392 296.772 84.832 298.98 84.832C300.868 84.832 302.516 85.216 303.924 85.984C305.364 86.752 306.468 87.76 307.236 89.008V85.216H315.444V112H307.236V108.208C306.436 109.456 305.316 110.464 303.876 111.232C302.468 112 300.82 112.384 298.932 112.384C296.756 112.384 294.772 111.824 292.98 110.704C291.188 109.552 289.764 107.936 288.708 105.856C287.684 103.744 287.172 101.312 287.172 98.56ZM307.236 98.608C307.236 96.56 306.66 94.944 305.508 93.76C304.388 92.576 303.012 91.984 301.38 91.984C299.748 91.984 298.356 92.576 297.204 93.76C296.084 94.912 295.524 96.512 295.524 98.56C295.524 100.608 296.084 102.24 297.204 103.456C298.356 104.64 299.748 105.232 301.38 105.232C303.012 105.232 304.388 104.64 305.508 103.456C306.66 102.272 307.236 100.656 307.236 98.608ZM334.822 92.032H330.406V112H322.198V92.032H319.222V85.216H322.198V84.448C322.198 81.152 323.142 78.656 325.03 76.96C326.918 75.232 329.686 74.368 333.334 74.368C333.942 74.368 334.39 74.384 334.678 74.416V81.376C333.11 81.28 332.006 81.504 331.366 82.048C330.726 82.592 330.406 83.568 330.406 84.976V85.216H334.822V92.032ZM337.047 98.56C337.047 95.808 337.559 93.392 338.583 91.312C339.639 89.232 341.063 87.632 342.855 86.512C344.647 85.392 346.647 84.832 348.855 84.832C350.743 84.832 352.391 85.216 353.799 85.984C355.239 86.752 356.343 87.76 357.111 89.008V85.216H365.319V112H357.111V108.208C356.311 109.456 355.191 110.464 353.751 111.232C352.343 112 350.695 112.384 348.807 112.384C346.631 112.384 344.647 111.824 342.855 110.704C341.063 109.552 339.639 107.936 338.583 105.856C337.559 103.744 337.047 101.312 337.047 98.56ZM357.111 98.608C357.111 96.56 356.535 94.944 355.383 93.76C354.263 92.576 352.887 91.984 351.255 91.984C349.623 91.984 348.231 92.576 347.079 93.76C345.959 94.912 345.399 96.512 345.399 98.56C345.399 100.608 345.959 102.24 347.079 103.456C348.231 104.64 349.623 105.232 351.255 105.232C352.887 105.232 354.263 104.64 355.383 103.456C356.535 102.272 357.111 100.656 357.111 98.608ZM396.505 98.176C396.505 98.944 396.457 99.744 396.361 100.576H377.785C377.913 102.24 378.441 103.52 379.369 104.416C380.329 105.28 381.497 105.712 382.873 105.712C384.921 105.712 386.345 104.848 387.145 103.12H395.881C395.433 104.88 394.617 106.464 393.433 107.872C392.281 109.28 390.825 110.384 389.065 111.184C387.305 111.984 385.337 112.384 383.161 112.384C380.537 112.384 378.201 111.824 376.153 110.704C374.105 109.584 372.505 107.984 371.353 105.904C370.201 103.824 369.625 101.392 369.625 98.608C369.625 95.824 370.185 93.392 371.305 91.312C372.457 89.232 374.057 87.632 376.105 86.512C378.153 85.392 380.505 84.832 383.161 84.832C385.753 84.832 388.057 85.376 390.073 86.464C392.089 87.552 393.657 89.104 394.777 91.12C395.929 93.136 396.505 95.488 396.505 98.176ZM388.105 96.016C388.105 94.608 387.625 93.488 386.665 92.656C385.705 91.824 384.505 91.408 383.065 91.408C381.689 91.408 380.521 91.808 379.561 92.608C378.633 93.408 378.057 94.544 377.833 96.016H388.105ZM409.043 76.48V112H400.835V76.48H409.043ZM413.36 98.56C413.36 95.808 413.872 93.392 414.896 91.312C415.952 89.232 417.376 87.632 419.168 86.512C420.96 85.392 422.96 84.832 425.168 84.832C426.928 84.832 428.528 85.2 429.968 85.936C431.44 86.672 432.592 87.664 433.424 88.912V76.48H441.632V112H433.424V108.16C432.656 109.44 431.552 110.464 430.112 111.232C428.704 112 427.056 112.384 425.168 112.384C422.96 112.384 420.96 111.824 419.168 110.704C417.376 109.552 415.952 107.936 414.896 105.856C413.872 103.744 413.36 101.312 413.36 98.56ZM433.424 98.608C433.424 96.56 432.848 94.944 431.696 93.76C430.576 92.576 429.2 91.984 427.568 91.984C425.936 91.984 424.544 92.576 423.392 93.76C422.272 94.912 421.712 96.512 421.712 98.56C421.712 100.608 422.272 102.24 423.392 103.456C424.544 104.64 425.936 105.232 427.568 105.232C429.2 105.232 430.576 104.64 431.696 103.456C432.848 102.272 433.424 100.656 433.424 98.608ZM447.042 86.848C447.17 83.424 448.29 80.784 450.402 78.928C452.514 77.072 455.378 76.144 458.994 76.144C461.394 76.144 463.442 76.56 465.138 77.392C466.866 78.224 468.162 79.36 469.026 80.8C469.922 82.24 470.37 83.856 470.37 85.648C470.37 87.76 469.842 89.488 468.786 90.832C467.73 92.144 466.498 93.04 465.09 93.52V93.712C466.914 94.32 468.354 95.328 469.41 96.736C470.466 98.144 470.994 99.952 470.994 102.16C470.994 104.144 470.53 105.904 469.602 107.44C468.706 108.944 467.378 110.128 465.618 110.992C463.89 111.856 461.826 112.288 459.426 112.288C455.586 112.288 452.514 111.344 450.21 109.456C447.938 107.568 446.738 104.72 446.61 100.912H454.578C454.61 102.32 455.01 103.44 455.778 104.272C456.546 105.072 457.666 105.472 459.138 105.472C460.386 105.472 461.346 105.12 462.018 104.416C462.722 103.68 463.074 102.72 463.074 101.536C463.074 100 462.578 98.896 461.586 98.224C460.626 97.52 459.074 97.168 456.93 97.168H455.394V90.496H456.93C458.562 90.496 459.874 90.224 460.866 89.68C461.89 89.104 462.402 88.096 462.402 86.656C462.402 85.504 462.082 84.608 461.442 83.968C460.802 83.328 459.922 83.008 458.802 83.008C457.586 83.008 456.674 83.376 456.066 84.112C455.49 84.848 455.154 85.76 455.058 86.848H447.042ZM488.68 104.32L494.488 85.216H503.224L493.72 112H483.592L474.088 85.216H482.872L488.68 104.32Z" fill="white"/>
</svg>
