<svg width="922" height="250" viewBox="0 0 922 250" fill="none" xmlns="http://www.w3.org/2000/svg">
<rect width="922" height="250" fill="black"/>
<path d="M385.968 115.8C387.568 113.347 389.568 111.427 391.968 110.04C394.368 108.6 397.035 107.88 399.968 107.88V122.36H396.208C392.795 122.36 390.235 123.107 388.528 124.6C386.821 126.04 385.968 128.6 385.968 132.28V153H372.288V108.36H385.968V115.8ZM403.787 130.6C403.787 126.013 404.64 121.987 406.347 118.52C408.107 115.053 410.48 112.387 413.467 110.52C416.454 108.653 419.787 107.72 423.467 107.72C426.614 107.72 429.36 108.36 431.707 109.64C434.107 110.92 435.947 112.6 437.227 114.68V108.36H450.907V153H437.227V146.68C435.894 148.76 434.027 150.44 431.627 151.72C429.28 153 426.534 153.64 423.387 153.64C419.76 153.64 416.454 152.707 413.467 150.84C410.48 148.92 408.107 146.227 406.347 142.76C404.64 139.24 403.787 135.187 403.787 130.6ZM437.227 130.68C437.227 127.267 436.267 124.573 434.347 122.6C432.48 120.627 430.187 119.64 427.467 119.64C424.747 119.64 422.427 120.627 420.507 122.6C418.64 124.52 417.707 127.187 417.707 130.6C417.707 134.013 418.64 136.733 420.507 138.76C422.427 140.733 424.747 141.72 427.467 141.72C430.187 141.72 432.48 140.733 434.347 138.76C436.267 136.787 437.227 134.093 437.227 130.68ZM483.204 119.72H475.844V153H462.164V119.72H457.204V108.36H462.164V107.08C462.164 101.587 463.737 97.4267 466.884 94.6C470.03 91.72 474.644 90.28 480.724 90.28C481.737 90.28 482.484 90.3067 482.964 90.36V101.96C480.35 101.8 478.51 102.173 477.444 103.08C476.377 103.987 475.844 105.613 475.844 107.96V108.36H483.204V119.72ZM486.912 130.6C486.912 126.013 487.765 121.987 489.472 118.52C491.232 115.053 493.605 112.387 496.592 110.52C499.579 108.653 502.912 107.72 506.592 107.72C509.739 107.72 512.485 108.36 514.832 109.64C517.232 110.92 519.072 112.6 520.352 114.68V108.36H534.032V153H520.352V146.68C519.019 148.76 517.152 150.44 514.752 151.72C512.405 153 509.659 153.64 506.512 153.64C502.885 153.64 499.579 152.707 496.592 150.84C493.605 148.92 491.232 146.227 489.472 142.76C487.765 139.24 486.912 135.187 486.912 130.6ZM520.352 130.68C520.352 127.267 519.392 124.573 517.472 122.6C515.605 120.627 513.312 119.64 510.592 119.64C507.872 119.64 505.552 120.627 503.632 122.6C501.765 124.52 500.832 127.187 500.832 130.6C500.832 134.013 501.765 136.733 503.632 138.76C505.552 140.733 507.872 141.72 510.592 141.72C513.312 141.72 515.605 140.733 517.472 138.76C519.392 136.787 520.352 134.093 520.352 130.68ZM586.009 129.96C586.009 131.24 585.929 132.573 585.769 133.96H554.809C555.022 136.733 555.902 138.867 557.449 140.36C559.049 141.8 560.995 142.52 563.289 142.52C566.702 142.52 569.075 141.08 570.409 138.2H584.969C584.222 141.133 582.862 143.773 580.889 146.12C578.969 148.467 576.542 150.307 573.609 151.64C570.675 152.973 567.395 153.64 563.769 153.64C559.395 153.64 555.502 152.707 552.089 150.84C548.675 148.973 546.009 146.307 544.089 142.84C542.169 139.373 541.209 135.32 541.209 130.68C541.209 126.04 542.142 121.987 544.009 118.52C545.929 115.053 548.595 112.387 552.009 110.52C555.422 108.653 559.342 107.72 563.769 107.72C568.089 107.72 571.929 108.627 575.289 110.44C578.649 112.253 581.262 114.84 583.129 118.2C585.049 121.56 586.009 125.48 586.009 129.96ZM572.009 126.36C572.009 124.013 571.209 122.147 569.609 120.76C568.009 119.373 566.009 118.68 563.609 118.68C561.315 118.68 559.369 119.347 557.769 120.68C556.222 122.013 555.262 123.907 554.889 126.36H572.009ZM606.906 93.8V153H593.226V93.8H606.906ZM614.099 130.6C614.099 126.013 614.953 121.987 616.659 118.52C618.419 115.053 620.793 112.387 623.779 110.52C626.766 108.653 630.099 107.72 633.779 107.72C636.713 107.72 639.379 108.333 641.779 109.56C644.233 110.787 646.153 112.44 647.539 114.52V93.8H661.219V153H647.539V146.6C646.259 148.733 644.419 150.44 642.019 151.72C639.673 153 636.926 153.64 633.779 153.64C630.099 153.64 626.766 152.707 623.779 150.84C620.793 148.92 618.419 146.227 616.659 142.76C614.953 139.24 614.099 135.187 614.099 130.6ZM647.539 130.68C647.539 127.267 646.579 124.573 644.659 122.6C642.793 120.627 640.499 119.64 637.779 119.64C635.059 119.64 632.739 120.627 630.819 122.6C628.953 124.52 628.019 127.187 628.019 130.6C628.019 134.013 628.953 136.733 630.819 138.76C632.739 140.733 635.059 141.72 637.779 141.72C640.499 141.72 642.793 140.733 644.659 138.76C646.579 136.787 647.539 134.093 647.539 130.68ZM670.236 111.08C670.45 105.373 672.316 100.973 675.836 97.88C679.356 94.7867 684.13 93.24 690.156 93.24C694.156 93.24 697.57 93.9333 700.396 95.32C703.276 96.7067 705.436 98.6 706.876 101C708.37 103.4 709.116 106.093 709.116 109.08C709.116 112.6 708.236 115.48 706.476 117.72C704.716 119.907 702.663 121.4 700.316 122.2V122.52C703.356 123.533 705.756 125.213 707.516 127.56C709.276 129.907 710.156 132.92 710.156 136.6C710.156 139.907 709.383 142.84 707.836 145.4C706.343 147.907 704.13 149.88 701.196 151.32C698.316 152.76 694.876 153.48 690.876 153.48C684.476 153.48 679.356 151.907 675.516 148.76C671.73 145.613 669.73 140.867 669.516 134.52H682.796C682.85 136.867 683.516 138.733 684.796 140.12C686.076 141.453 687.943 142.12 690.396 142.12C692.476 142.12 694.076 141.533 695.196 140.36C696.37 139.133 696.956 137.533 696.956 135.56C696.956 133 696.13 131.16 694.476 130.04C692.876 128.867 690.29 128.28 686.716 128.28H684.156V117.16H686.716C689.436 117.16 691.623 116.707 693.276 115.8C694.983 114.84 695.836 113.16 695.836 110.76C695.836 108.84 695.303 107.347 694.236 106.28C693.17 105.213 691.703 104.68 689.836 104.68C687.81 104.68 686.29 105.293 685.276 106.52C684.316 107.747 683.756 109.267 683.596 111.08H670.236ZM739.634 140.2L749.314 108.36H763.874L748.034 153H731.154L715.314 108.36H729.954L739.634 140.2Z" fill="white"/>
<path d="M290.305 47L361.655 48.8133L290.305 102.173V47ZM285.122 49.9791V104.958H218.793C241.412 87.0313 263.102 68.3998 285.122 49.9791ZM357.848 57.426L367 59.8868L333.957 75.2339L357.848 57.426ZM178.867 63.5132H193.363L227.135 92.3948L211.423 104.958H178.867C178.869 91.1339 178.867 77.3299 178.867 63.5132ZM173.683 66.0388V78.0188H157L173.683 66.0388ZM182.511 109.102H283.907L255.642 169.521L182.511 109.102ZM285.122 118.427V203L252.079 188.883C263.096 165.395 274.099 141.921 285.122 118.427Z" fill="#33CC00"/>
</svg>
